<svg width="160" height="40" viewBox="0 0 160 40" fill="none" xmlns="http://www.w3.org/2000/svg">
  <rect width="40" height="40" rx="10" fill="#111111"/>
  <path d="M11 8H21C28.1797 8 34 13.8203 34 21C34 28.1797 28.1797 34 21 34H11V8Z" fill="white"/>
  <path d="M17 15H21C24.3137 15 27 17.6863 27 21C27 24.3137 24.3137 27 21 27H17V15Z" fill="#111111"/>
  <path d="M53 13.5H69.1C75.9418 13.5 80.4 17.6067 80.4 24.05C80.4 30.4933 75.9418 34.6 69.1 34.6H53V13.5ZM68.65 29.9C72.5428 29.9 75.05 27.6358 75.05 24.05C75.05 20.4642 72.5428 18.2 68.65 18.2H58.2V29.9H68.65Z" fill="#111111"/>
  <path d="M85.0695 13.5H90.2695V34.6H85.0695V13.5Z" fill="#111111"/>
  <path d="M96.4258 13.5H101.626V29.75H115.426V34.6H96.4258V13.5Z" fill="#111111"/>
</svg>
